<svg xmlns="http://www.w3.org/2000/svg" viewBox="0 0 1800 1000">
<defs><radialGradient id="m" cx="70%" cy="20%" r="45%"><stop offset="0%" stop-color="#fff4c5"/><stop offset="35%" stop-color="#d9aa4a"/><stop offset="100%" stop-color="#050515" stop-opacity="0"/></radialGradient><linearGradient id="b" x1="0" y1="0" x2="1" y2="1"><stop stop-color="#050515"/><stop offset=".45" stop-color="#1b0828"/><stop offset=".75" stop-color="#3b1018"/><stop offset="1" stop-color="#07242a"/></linearGradient><linearGradient id="g"><stop stop-color="#fff0b7"/><stop offset=".5" stop-color="#d9aa4a"/><stop offset="1" stop-color="#79551d"/></linearGradient></defs>
<rect width="1800" height="1000" fill="url(#b)"/><circle cx="1320" cy="190" r="300" fill="url(#m)" opacity=".7"/>
<g opacity=".75" fill="#fff6d7"><circle cx="120" cy="90" r="2"/><circle cx="280" cy="170" r="2"/><circle cx="650" cy="100" r="2"/><circle cx="1560" cy="500" r="2"/><circle cx="1480" cy="760" r="2"/></g>
<g opacity=".9"><path d="M420 760 L900 300 L1380 760 Z" fill="#111022" stroke="url(#g)" stroke-width="7"/><path d="M570 760 L900 420 L1230 760 Z" fill="#1a1022" stroke="#d7a94a" stroke-width="4"/><path d="M365 760 H1435" stroke="#f0c76d" stroke-width="10"/></g>
<g opacity=".82" fill="#ffd7e8"><path d="M255 690c50-35 82-12 100 10-42 8-75 4-100-10z"/><path d="M1450 695c-52-34-88-9-103 13 43 7 77 1 103-13z"/></g>
<text x="120" y="390" fill="url(#g)" font-family="Georgia" font-size="122" font-weight="700">LOTOS</text><text x="126" y="455" fill="#e8dfd0" font-family="Arial" font-size="32" letter-spacing="8">IMPERIAL SPACE ARCHIVE</text></svg>