<svg xmlns="http://www.w3.org/2000/svg" viewBox="0 0 1800 1000">
<defs>
  <linearGradient id="bg" x1="0" y1="0" x2="1" y2="1">
    <stop stop-color="#050515"/><stop offset=".42" stop-color="#190824"/><stop offset=".75" stop-color="#3a1017"/><stop offset="1" stop-color="#06242a"/>
  </linearGradient>
  <radialGradient id="sun" cx="72%" cy="20%" r="42%">
    <stop stop-color="#fff3bd"/><stop offset=".35" stop-color="#d6a13e"/><stop offset="1" stop-color="#d6a13e" stop-opacity="0"/>
  </radialGradient>
  <linearGradient id="gold" x1="0" y1="0" x2="1" y2="1">
    <stop stop-color="#fff1b6"/><stop offset=".48" stop-color="#d6a13e"/><stop offset="1" stop-color="#76501b"/>
  </linearGradient>
</defs>
<rect width="1800" height="1000" fill="url(#bg)"/>
<circle cx="1290" cy="190" r="330" fill="url(#sun)" opacity=".8"/>
<g opacity=".75" fill="#fff6d7">
  <circle cx="130" cy="90" r="2"/><circle cx="310" cy="210" r="2"/><circle cx="690" cy="120" r="2"/>
  <circle cx="1570" cy="550" r="2"/><circle cx="1280" cy="780" r="2"/><circle cx="1020" cy="340" r="2"/>
</g>
<g stroke="url(#gold)" stroke-width="7" fill="none" opacity=".92">
  <path d="M230 760 C470 620, 650 460, 900 260 C1150 460, 1330 620, 1570 760"/>
  <path d="M350 760 H1450"/>
  <path d="M900 280 V760"/>
  <path d="M600 760 V560"/>
  <path d="M1200 760 V560"/>
  <path d="M440 760 C540 700, 555 640, 600 560 C675 668, 770 720, 900 760 C1030 720,1125 668,1200 560 C1245 640,1260 700,1360 760"/>
</g>
<text x="125" y="360" fill="url(#gold)" font-family="Georgia" font-size="126" font-weight="700">LOTOS</text>
<text x="132" y="426" fill="#efe2ce" font-family="Arial" font-size="30" letter-spacing="9">PALACE OF THE STARS</text>
</svg>